<svg xmlns="http://www.w3.org/2000/svg" xml:space="preserve" width="93mm" height="58mm" viewBox="0 0 93 58"><defs><clipPath id="c" clipPathUnits="userSpaceOnUse"><path d="M-92.81-359.87h500v500h-500Z" clip-rule="evenodd"/></clipPath><clipPath id="b" clipPathUnits="userSpaceOnUse"><path d="M-.138 0h866.924v449.974H-.138Z" clip-rule="evenodd"/></clipPath><clipPath id="a" clipPathUnits="userSpaceOnUse"><path d="M-.138 0h866.924v449.974H-.138Z" clip-rule="evenodd"/></clipPath></defs><g style="display:inline"><path d="M314.14 0 0 451.22h326.36l94.89-136.3-31.5-50.56-91.98 132.11H104.82l207.61-298.2 227.61 352.95h66.24z" clip-path="url(#a)" style="display:inline;fill:#11aaa2;fill-opacity:1;fill-rule:nonzero;stroke:none" transform="translate(17.996)scale(.06409)"/><path d="M573.79 0 456.35 168.69l32.07 49.74 83.66-120.16L799.9 451.22h65.23Z" clip-path="url(#b)" style="display:inline;fill:#103260;fill-opacity:1;fill-rule:nonzero;stroke:none" transform="translate(17.996)scale(.06409)"/><path d="M0 1.5h314.381" clip-path="url(#c)" style="display:inline;fill:none;stroke:#11aaa2;stroke-width:3;stroke-linecap:butt;stroke-linejoin:miter;stroke-miterlimit:10;stroke-dasharray:none;stroke-opacity:1" transform="matrix(.26458 0 0 .26458 4.13 51.101)"/><g style="display:inline"><path d="M13.171-47.735q6.263.001 9.485 1.484c2.156.993 3.898 2.543 5.234 4.657q1.999 3.159 2 7.156 0 5.813-3.844 9.687-3.833 3.861-11.484 3.86h-4.438v20.89H4.812v-47.734Zm-3.047 21.906h2.86q6.262 0 8.922-2.156 2.656-2.154 2.656-6.453 0-4.372-2.625-6.36-2.625-1.998-9.281-2h-2.532zM55.14-47.735q17.093 0 17.094 13.172-.002 5.503-3.203 9.078-3.187 3.58-8.766 4.078L75.468 0h-6.531L54.499-20.954h-1.328V0H47.86v-47.734ZM53.17-25.641h2.344q5.638 0 8.516-2.078 2.889-2.092 2.89-6.47c0-3.163-.945-5.39-2.828-6.671-1.875-1.289-4.586-1.937-8.125-1.937h-2.797zm37.793 1.828q-.002-6.576 3.313-12.266 3.328-5.7 9.093-9.093 5.766-3.389 12.47-3.391 6.656.001 12.374 3.297 5.731 3.298 9.125 9.062 3.389 5.753 3.39 12.39 0 6.598-3.327 12.298-3.332 5.689-9.063 9.015Q122.62.83 115.84.828c-4.43 0-8.562-1.098-12.406-3.297q-5.767-3.295-9.125-9.016-3.344-5.73-3.344-12.328m24.813-19.813q-5.314.002-9.813 2.735a20.03 20.03 0 0 0-7.094 7.25q-2.594 4.517-2.593 9.765c0 3.512.882 6.79 2.656 9.829a20.3 20.3 0 0 0 7.187 7.25q4.529 2.688 9.72 2.687 5.26 0 9.843-2.719c3.062-1.82 5.445-4.25 7.156-7.281q2.562-4.56 2.563-9.766 0-5.31-2.625-9.906-2.626-4.593-7.157-7.219-4.517-2.625-9.843-2.625m65.082-4.109v4.938h-16.407v14.171h15.891v4.954h-15.89V-.001h-5.313v-47.734Zm25.18 0V-.001h-5.313v-47.734Zm29.257 0q6.263.001 9.485 1.484 3.232 1.488 5.234 4.657 1.999 3.159 2 7.156 0 5.813-3.844 9.687-3.833 3.861-11.484 3.86h-4.438v20.89h-5.312v-47.734Zm-3.047 21.906h2.86q6.262 0 8.922-2.156 2.656-2.154 2.656-6.453 0-4.372-2.625-6.36-2.625-1.998-9.281-2h-2.532zm35.325 2.016c0-4.383 1.101-8.473 3.312-12.266q3.328-5.7 9.094-9.093 5.766-3.389 12.469-3.391 6.656.001 12.375 3.297 5.731 3.298 9.125 9.062c2.257 3.836 3.39 7.965 3.39 12.39q0 6.598-3.328 12.298-3.33 5.689-9.062 9.015-5.72 3.33-12.5 3.329c-4.43 0-8.563-1.098-12.407-3.297q-5.766-3.295-9.125-9.016-3.344-5.73-3.343-12.328m24.812-19.813q-5.313.002-9.812 2.735a20.03 20.03 0 0 0-7.094 7.25q-2.595 4.517-2.594 9.765-.002 5.27 2.656 9.829a20.3 20.3 0 0 0 7.188 7.25q4.529 2.688 9.719 2.687 5.261 0 9.843-2.719c3.063-1.82 5.446-4.25 7.157-7.281q2.561-4.56 2.562-9.766 0-5.31-2.625-9.906-2.626-4.593-7.156-7.219-4.518-2.625-9.844-2.625m48.676-4.109v42.797h13.172v4.937h-18.485v-47.734Zm0 0" aria-label="PROFIPOL" style="fill:#000;fill-opacity:1;fill-rule:nonzero;stroke:none" transform="matrix(.26458 0 0 .26458 -.863 46.9)"/></g><g style="display:inline"><path d="M13.173-47.733q6.263.001 9.484 1.484c2.157.993 3.899 2.543 5.235 4.657q1.999 3.159 2 7.156 0 5.813-3.844 9.687-3.833 3.861-11.484 3.86h-4.438V0H4.814v-47.734Zm-3.047 21.906h2.86q6.262 0 8.921-2.156c1.77-1.438 2.657-3.586 2.657-6.453q0-4.372-2.625-6.36-2.625-1.999-9.282-2h-2.53zm45.012-21.906q17.093 0 17.094 13.172-.002 5.503-3.203 9.078-3.187 3.58-8.766 4.078L75.466.001h-6.531L54.497-20.952H53.17V.001h-5.312v-47.734Zm-1.969 22.094h2.344q5.638 0 8.516-2.078 2.889-2.092 2.89-6.47c0-3.163-.945-5.39-2.828-6.671-1.875-1.29-4.586-1.938-8.125-1.938H53.17zm37.793 1.828q-.002-6.576 3.313-12.266 3.328-5.7 9.093-9.094c3.844-2.257 8-3.39 12.47-3.39q6.656.002 12.374 3.297 5.731 3.297 9.125 9.062 3.388 5.753 3.39 12.39 0 6.598-3.327 12.298-3.332 5.689-9.063 9.015Q122.618.83 115.837.83c-4.43 0-8.562-1.097-12.406-3.296q-5.767-3.296-9.125-9.016-3.344-5.73-3.344-12.328m24.813-19.813q-5.314.002-9.813 2.735a20.03 20.03 0 0 0-7.094 7.25q-2.594 4.516-2.593 9.765c0 3.512.882 6.79 2.656 9.828a20.3 20.3 0 0 0 7.187 7.25q4.528 2.689 9.72 2.688 5.26 0 9.843-2.719c3.062-1.82 5.445-4.25 7.156-7.281q2.562-4.561 2.563-9.766 0-5.31-2.625-9.906-2.626-4.594-7.157-7.219-4.517-2.625-9.843-2.625m65.082-4.109v4.937H164.45v14.172h15.891v4.953h-15.89V.001h-5.313v-47.734Zm25.18 0V.001h-5.313v-47.734Zm29.257 0q6.263.001 9.485 1.484c2.156.993 3.898 2.543 5.234 4.657q1.999 3.159 2 7.156 0 5.813-3.844 9.687-3.832 3.861-11.484 3.86h-4.438V0h-5.312v-47.734Zm-3.047 21.906h2.86q6.262 0 8.922-2.156c1.77-1.438 2.656-3.586 2.656-6.453q0-4.372-2.625-6.36-2.625-1.999-9.281-2h-2.532zm35.325 2.016c0-4.383 1.101-8.473 3.312-12.266q3.328-5.7 9.094-9.094c3.844-2.257 8-3.39 12.469-3.39q6.656.002 12.375 3.297 5.731 3.297 9.125 9.062c2.257 3.836 3.39 7.965 3.39 12.39q0 6.598-3.328 12.298-3.33 5.689-9.062 9.015-5.72 3.329-12.5 3.328c-4.43 0-8.563-1.097-12.407-3.296q-5.766-3.296-9.125-9.016-3.344-5.73-3.343-12.328m24.812-19.813q-5.313.002-9.812 2.735a20.03 20.03 0 0 0-7.094 7.25q-2.595 4.516-2.594 9.765-.002 5.27 2.656 9.828a20.3 20.3 0 0 0 7.188 7.25q4.529 2.689 9.719 2.688 5.261 0 9.843-2.719c3.063-1.82 5.446-4.25 7.157-7.281q2.561-4.561 2.562-9.766 0-5.31-2.625-9.906-2.626-4.594-7.156-7.219-4.518-2.625-9.844-2.625m48.676-4.109v42.797h13.172V0h-18.485v-47.734Zm0 0" aria-label="PROFIPOL" style="fill:#103260;fill-opacity:1;fill-rule:nonzero;stroke:none" transform="matrix(.26458 0 0 .26458 -1.204 46.559)"/></g><g style="display:inline"><path d="M7.625-.642c-.281.18-.637.343-1.062.5-.43.152-.899.234-1.407.234q-1.33.001-2.343-.578A4.06 4.06 0 0 1 1.25-2.08a4.45 4.45 0 0 1-.547-2.187Q.701-5.562 1.25-6.58a4.13 4.13 0 0 1 1.531-1.61c.657-.382 1.395-.577 2.219-.577q.731 0 1.375.187.638.188 1.14.5l-.468 1.094c-.668-.445-1.336-.672-2-.672q-.846 0-1.563.453-.72.44-1.14 1.203a3.35 3.35 0 0 0-.422 1.672q0 .938.39 1.688.388.752 1.11 1.187.733.422 1.672.422 1.17 0 2.031-.656zm7.406-3.688q-.002-1.183.594-2.203a4.5 4.5 0 0 1 1.625-1.625 4.2 4.2 0 0 1 2.219-.61q1.183 0 2.203.61a4.53 4.53 0 0 1 1.625 1.625q.61 1.02.61 2.203 0 1.206-.61 2.219a4.37 4.37 0 0 1-1.625 1.61 4.3 4.3 0 0 1-2.203.593 4.5 4.5 0 0 1-2.235-.578 4.36 4.36 0 0 1-1.609-1.61 4.3 4.3 0 0 1-.594-2.234m1.203.016q0 .88.422 1.64.437.751 1.188 1.204.75.438 1.64.437a3.1 3.1 0 0 0 1.625-.437q.75-.436 1.172-1.204a3.37 3.37 0 0 0 .422-1.656q-.002-.903-.437-1.672a3.1 3.1 0 0 0-1.172-1.203 3.05 3.05 0 0 0-1.625-.453q-.89 0-1.64.453-.74.457-1.173 1.219a3.4 3.4 0 0 0-.422 1.672m23.192-4.36V.28h-.047l-6.36-6.47.016 6.188h-1.172v-8.937h.063l6.36 6.531-.032-6.266zm12.976 1.547a5.6 5.6 0 0 0-1-.406 3.5 3.5 0 0 0-.984-.156q-.72 0-1.14.312c-.274.211-.407.5-.407.875q-.001.535.484.875.5.346 1.391.688.667.234 1.125.515.468.283.766.782.311.504.312 1.265-.002.692-.344 1.266-.345.563-.984.89-.643.315-1.516.313a5 5 0 0 1-1.546-.25 5.5 5.5 0 0 1-1.297-.656l.515-.922q.436.328 1.063.562.621.235 1.172.235c.457 0 .86-.117 1.203-.36.351-.238.531-.593.531-1.062q-.002-.608-.437-.953-.439-.357-1.235-.672a12 12 0 0 1-1.219-.531 2.5 2.5 0 0 1-.828-.735q-.344-.466-.343-1.156 0-1.014.703-1.64.715-.639 1.86-.672 1.404 0 2.608.687zM65.97-8.674v1.11H63.64v7.562h-1.172v-7.562h-2.266v-1.11Zm12.64 8.672-2.046-3.203a2 2 0 0 1-.282.016h-1.297v3.187h-1.156v-8.672h2.313q.888.001 1.578.313.702.314 1.094.922.405.598.406 1.453 0 .798-.36 1.469-.363.674-1.078 1.03l2.172 3.485zM76.25-4.314c.625 0 1.07-.16 1.344-.485q.422-.497.422-1.14-.001-.387-.172-.75a1.5 1.5 0 0 0-.563-.625c-.25-.164-.57-.25-.953-.25h-1.344v3.25zM88.793-3.08q0 .58.281 1.047c.188.305.438.547.75.734q.468.268 1.047.266.609.002 1.094-.266.48-.264.75-.734.28-.467.281-1.047v-5.594h1.14v5.641q-.002.926-.437 1.64a2.9 2.9 0 0 1-1.172 1.094 3.47 3.47 0 0 1-1.656.391q-.89 0-1.64-.39a2.9 2.9 0 0 1-1.172-1.094q-.423-.716-.422-1.641v-5.64h1.156zm20.113 2.438c-.281.18-.636.343-1.062.5-.43.152-.899.234-1.406.234q-1.33.001-2.344-.578a4.06 4.06 0 0 1-1.563-1.594 4.45 4.45 0 0 1-.547-2.187q-.002-1.294.547-2.313a4.13 4.13 0 0 1 1.532-1.61c.656-.382 1.394-.577 2.218-.577q.733 0 1.375.187.638.189 1.14.5l-.468 1.094c-.668-.445-1.336-.672-2-.672-.562 0-1.086.152-1.562.453q-.72.44-1.141 1.203a3.35 3.35 0 0 0-.422 1.672q0 .938.39 1.688.39.752 1.11 1.187.733.422 1.672.422 1.17 0 2.031-.656zm13.078-8.032v1.11h-2.328v7.562h-1.172v-7.562h-2.265v-1.11zm9.016 0v8.672h-1.156v-8.672Zm7.957 4.344c0-.789.195-1.523.594-2.203a4.5 4.5 0 0 1 1.625-1.625 4.2 4.2 0 0 1 2.219-.61q1.183 0 2.203.61a4.53 4.53 0 0 1 1.625 1.625q.609 1.02.609 2.203 0 1.206-.61 2.219a4.37 4.37 0 0 1-1.624 1.61 4.3 4.3 0 0 1-2.203.593 4.5 4.5 0 0 1-2.235-.578 4.36 4.36 0 0 1-1.61-1.61 4.3 4.3 0 0 1-.593-2.234m1.203.016q0 .88.422 1.64.436.751 1.188 1.204.75.438 1.64.437a3.1 3.1 0 0 0 1.625-.437q.75-.436 1.172-1.204a3.37 3.37 0 0 0 .422-1.656c0-.601-.149-1.16-.438-1.672a3.1 3.1 0 0 0-1.171-1.203 3.05 3.05 0 0 0-1.625-.453q-.891 0-1.641.453-.738.457-1.172 1.219a3.4 3.4 0 0 0-.422 1.672m23.188-4.36V.28h-.047l-6.36-6.47.016 6.188h-1.172v-8.937h.063l6.359 6.531-.031-6.266zm0 0" aria-label="CONSTRUCTION" style="fill:#103260;fill-opacity:1;fill-rule:nonzero;stroke:none" transform="matrix(.26458 0 0 .26458 23.946 57.225)"/></g></g></svg>