<?xml version="1.0" encoding="UTF-8" standalone="no"?>
<svg
   xml:space="preserve"
   width="56mm"
   height="56mm"
   viewBox="0 0 56 56"
   version="1.1"
   id="svg10"
   sodipodi:docname="icon.svg"
   inkscape:version="1.4 (e7c3feb1, 2024-10-09)"
   xmlns:inkscape="http://www.inkscape.org/namespaces/inkscape"
   xmlns:sodipodi="http://sodipodi.sourceforge.net/DTD/sodipodi-0.dtd"
   xmlns="http://www.w3.org/2000/svg"
   xmlns:svg="http://www.w3.org/2000/svg"><sodipodi:namedview
     id="namedview10"
     pagecolor="#ffffff"
     bordercolor="#000000"
     borderopacity="0.25"
     inkscape:showpageshadow="2"
     inkscape:pageopacity="0.0"
     inkscape:pagecheckerboard="0"
     inkscape:deskcolor="#d1d1d1"
     inkscape:document-units="mm"
     inkscape:zoom="1.4829912"
     inkscape:cx="218.47736"
     inkscape:cy="284.56001"
     inkscape:window-width="2056"
     inkscape:window-height="1225"
     inkscape:window-x="0"
     inkscape:window-y="44"
     inkscape:window-maximized="1"
     inkscape:current-layer="svg10"><inkscape:page
       x="0"
       y="0"
       width="56"
       height="56"
       id="page2"
       margin="0"
       bleed="0" /></sodipodi:namedview><defs
     id="defs3"><clipPath
       id="c"
       clipPathUnits="userSpaceOnUse"><path
         d="m -92.81,-359.87 h 500 v 500 h -500 z"
         clip-rule="evenodd"
         id="path1" /></clipPath><clipPath
       id="b"
       clipPathUnits="userSpaceOnUse"><path
         d="M -0.138,0 H 866.786 V 449.974 H -0.138 Z"
         clip-rule="evenodd"
         id="path2" /></clipPath><clipPath
       id="a"
       clipPathUnits="userSpaceOnUse"><path
         d="M -0.138,0 H 866.786 V 449.974 H -0.138 Z"
         clip-rule="evenodd"
         id="path3" /></clipPath></defs><g
     style="display:inline"
     id="g10"
     transform="translate(-17.996,13.580584)"><path
       d="M 314.14,0 0,451.22 h 326.36 l 94.89,-136.3 -31.5,-50.56 -91.98,132.11 H 104.82 L 312.43,98.27 540.04,451.22 h 66.24 z"
       clip-path="url(#a)"
       style="display:inline;fill:#11aaa2;fill-opacity:1;fill-rule:nonzero;stroke:none"
       transform="matrix(0.06409,0,0,0.06409,17.996,0)"
       id="path4" /><path
       d="M 573.79,0 456.35,168.69 488.42,218.43 572.08,98.27 799.9,451.22 h 65.23 z"
       clip-path="url(#b)"
       style="display:inline;fill:#103260;fill-opacity:1;fill-rule:nonzero;stroke:none"
       transform="matrix(0.06409,0,0,0.06409,17.996,0)"
       id="path5" /><path
       d="M 0,1.5 H 314.381"
       clip-path="url(#c)"
       style="display:none;fill:none;stroke:#11aaa2;stroke-width:3;stroke-linecap:butt;stroke-linejoin:miter;stroke-miterlimit:10;stroke-dasharray:none;stroke-opacity:1"
       transform="matrix(0.26458,0,0,0.26458,4.13,51.101)"
       id="path6" /><g
       style="display:none"
       id="g7"><path
         d="m 13.171,-47.735 q 6.263,10e-4 9.485,1.484 c 2.156,0.993 3.898,2.543 5.234,4.657 q 1.999,3.159 2,7.156 0,5.813 -3.844,9.687 -3.833,3.861 -11.484,3.86 h -4.438 v 20.89 H 4.812 v -47.734 z m -3.047,21.906 h 2.86 q 6.262,0 8.922,-2.156 2.656,-2.154 2.656,-6.453 0,-4.372 -2.625,-6.36 -2.625,-1.998 -9.281,-2 H 10.124 Z M 55.14,-47.735 q 17.093,0 17.094,13.172 -0.002,5.503 -3.203,9.078 -3.187,3.58 -8.766,4.078 L 75.468,0 H 68.937 L 54.499,-20.954 H 53.171 V 0 H 47.86 v -47.734 z m -1.97,22.094 h 2.344 q 5.638,0 8.516,-2.078 2.889,-2.092 2.89,-6.47 c 0,-3.163 -0.945,-5.39 -2.828,-6.671 -1.875,-1.289 -4.586,-1.937 -8.125,-1.937 H 53.17 Z m 37.793,1.828 q -0.002,-6.576 3.313,-12.266 3.328,-5.7 9.093,-9.093 5.766,-3.389 12.47,-3.391 6.656,0.001 12.374,3.297 5.731,3.298 9.125,9.062 3.389,5.753 3.39,12.39 0,6.598 -3.327,12.298 -3.332,5.689 -9.063,9.015 -5.718,3.331 -12.498,3.329 c -4.43,0 -8.562,-1.098 -12.406,-3.297 q -5.767,-3.295 -9.125,-9.016 -3.344,-5.73 -3.344,-12.328 m 24.813,-19.813 q -5.314,0.002 -9.813,2.735 a 20.03,20.03 0 0 0 -7.094,7.25 q -2.594,4.517 -2.593,9.765 c 0,3.512 0.882,6.79 2.656,9.829 a 20.3,20.3 0 0 0 7.187,7.25 q 4.529,2.688 9.72,2.687 5.26,0 9.843,-2.719 c 3.062,-1.82 5.445,-4.25 7.156,-7.281 q 2.562,-4.56 2.563,-9.766 0,-5.31 -2.625,-9.906 -2.626,-4.593 -7.157,-7.219 -4.517,-2.625 -9.843,-2.625 m 65.082,-4.109 v 4.938 h -16.407 v 14.171 h 15.891 v 4.954 h -15.89 v 23.671 h -5.313 v -47.734 z m 25.18,0 v 47.734 h -5.313 v -47.734 z m 29.257,0 q 6.263,10e-4 9.485,1.484 3.232,1.488 5.234,4.657 1.999,3.159 2,7.156 0,5.813 -3.844,9.687 -3.833,3.861 -11.484,3.86 h -4.438 v 20.89 h -5.312 v -47.734 z m -3.047,21.906 h 2.86 q 6.262,0 8.922,-2.156 2.656,-2.154 2.656,-6.453 0,-4.372 -2.625,-6.36 -2.625,-1.998 -9.281,-2 h -2.532 z m 35.325,2.016 c 0,-4.383 1.101,-8.473 3.312,-12.266 q 3.328,-5.7 9.094,-9.093 5.766,-3.389 12.469,-3.391 6.656,0.001 12.375,3.297 5.731,3.298 9.125,9.062 c 2.257,3.836 3.39,7.965 3.39,12.39 q 0,6.598 -3.328,12.298 -3.33,5.689 -9.062,9.015 -5.72,3.33 -12.5,3.329 c -4.43,0 -8.563,-1.098 -12.407,-3.297 q -5.766,-3.295 -9.125,-9.016 -3.344,-5.73 -3.343,-12.328 m 24.812,-19.813 q -5.313,0.002 -9.812,2.735 a 20.03,20.03 0 0 0 -7.094,7.25 q -2.595,4.517 -2.594,9.765 -0.002,5.27 2.656,9.829 a 20.3,20.3 0 0 0 7.188,7.25 q 4.529,2.688 9.719,2.687 5.261,0 9.843,-2.719 c 3.063,-1.82 5.446,-4.25 7.157,-7.281 q 2.561,-4.56 2.562,-9.766 0,-5.31 -2.625,-9.906 -2.626,-4.593 -7.156,-7.219 -4.518,-2.625 -9.844,-2.625 m 48.676,-4.109 v 42.797 h 13.172 v 4.937 H 335.75 v -47.734 z m 0,0"
         aria-label="PROFIPOL"
         style="fill:#000000;fill-opacity:1;fill-rule:nonzero;stroke:none"
         transform="matrix(0.26458,0,0,0.26458,-0.863,46.9)"
         id="path7" /></g><g
       style="display:none"
       id="g8"><path
         d="m 13.173,-47.733 q 6.263,10e-4 9.484,1.484 c 2.157,0.993 3.899,2.543 5.235,4.657 q 1.999,3.159 2,7.156 0,5.813 -3.844,9.687 -3.833,3.861 -11.484,3.86 H 10.126 V 0 H 4.814 v -47.734 z m -3.047,21.906 h 2.86 q 6.262,0 8.921,-2.156 c 1.77,-1.438 2.657,-3.586 2.657,-6.453 q 0,-4.372 -2.625,-6.36 -2.625,-1.999 -9.282,-2 h -2.53 z m 45.012,-21.906 q 17.093,0 17.094,13.172 -0.002,5.503 -3.203,9.078 -3.187,3.58 -8.766,4.078 L 75.466,0.001 H 68.935 L 54.497,-20.952 H 53.17 V 0.001 h -5.312 v -47.734 z m -1.969,22.094 h 2.344 q 5.638,0 8.516,-2.078 2.889,-2.092 2.89,-6.47 c 0,-3.163 -0.945,-5.39 -2.828,-6.671 -1.875,-1.29 -4.586,-1.938 -8.125,-1.938 H 53.17 Z m 37.793,1.828 q -0.002,-6.576 3.313,-12.266 3.328,-5.7 9.093,-9.094 c 3.844,-2.257 8,-3.39 12.47,-3.39 q 6.656,0.002 12.374,3.297 5.731,3.297 9.125,9.062 3.388,5.753 3.39,12.39 0,6.598 -3.327,12.298 -3.332,5.689 -9.063,9.015 -5.719,3.329 -12.5,3.329 c -4.43,0 -8.562,-1.097 -12.406,-3.296 q -5.767,-3.296 -9.125,-9.016 -3.344,-5.73 -3.344,-12.328 m 24.813,-19.813 q -5.314,0.002 -9.813,2.735 a 20.03,20.03 0 0 0 -7.094,7.25 q -2.594,4.516 -2.593,9.765 c 0,3.512 0.882,6.79 2.656,9.828 a 20.3,20.3 0 0 0 7.187,7.25 q 4.528,2.689 9.72,2.688 5.26,0 9.843,-2.719 c 3.062,-1.82 5.445,-4.25 7.156,-7.281 q 2.562,-4.561 2.563,-9.766 0,-5.31 -2.625,-9.906 -2.626,-4.594 -7.157,-7.219 -4.517,-2.625 -9.843,-2.625 m 65.082,-4.109 v 4.937 H 164.45 v 14.172 h 15.891 v 4.953 h -15.89 V 0.001 h -5.313 v -47.734 z m 25.18,0 V 0.001 h -5.313 v -47.734 z m 29.257,0 q 6.263,10e-4 9.485,1.484 c 2.156,0.993 3.898,2.543 5.234,4.657 q 1.999,3.159 2,7.156 0,5.813 -3.844,9.687 -3.832,3.861 -11.484,3.86 h -4.438 V 0 h -5.312 v -47.734 z m -3.047,21.906 h 2.86 q 6.262,0 8.922,-2.156 c 1.77,-1.438 2.656,-3.586 2.656,-6.453 q 0,-4.372 -2.625,-6.36 -2.625,-1.999 -9.281,-2 h -2.532 z m 35.325,2.016 c 0,-4.383 1.101,-8.473 3.312,-12.266 q 3.328,-5.7 9.094,-9.094 c 3.844,-2.257 8,-3.39 12.469,-3.39 q 6.656,0.002 12.375,3.297 5.731,3.297 9.125,9.062 c 2.257,3.836 3.39,7.965 3.39,12.39 q 0,6.598 -3.328,12.298 -3.33,5.689 -9.062,9.015 -5.72,3.329 -12.5,3.328 c -4.43,0 -8.563,-1.097 -12.407,-3.296 q -5.766,-3.296 -9.125,-9.016 -3.344,-5.73 -3.343,-12.328 m 24.812,-19.813 q -5.313,0.002 -9.812,2.735 a 20.03,20.03 0 0 0 -7.094,7.25 q -2.595,4.516 -2.594,9.765 -0.002,5.27 2.656,9.828 a 20.3,20.3 0 0 0 7.188,7.25 q 4.529,2.689 9.719,2.688 5.261,0 9.843,-2.719 c 3.063,-1.82 5.446,-4.25 7.157,-7.281 q 2.561,-4.561 2.562,-9.766 0,-5.31 -2.625,-9.906 -2.626,-4.594 -7.156,-7.219 -4.518,-2.625 -9.844,-2.625 m 48.676,-4.109 v 42.797 h 13.172 V 0 h -18.485 v -47.734 z m 0,0"
         aria-label="PROFIPOL"
         style="fill:#103260;fill-opacity:1;fill-rule:nonzero;stroke:none"
         transform="matrix(0.26458,0,0,0.26458,-1.204,46.559)"
         id="path8" /></g><g
       style="display:none"
       id="g9"><path
         d="m 7.625,-0.642 c -0.281,0.18 -0.637,0.343 -1.062,0.5 C 6.133,0.01 5.664,0.092 5.156,0.092 Q 3.826,0.093 2.813,-0.486 A 4.06,4.06 0 0 1 1.25,-2.08 4.45,4.45 0 0 1 0.703,-4.267 Q 0.701,-5.562 1.25,-6.58 A 4.13,4.13 0 0 1 2.781,-8.19 C 3.438,-8.572 4.176,-8.767 5,-8.767 q 0.731,0 1.375,0.187 0.638,0.188 1.14,0.5 l -0.468,1.094 c -0.668,-0.445 -1.336,-0.672 -2,-0.672 q -0.846,0 -1.563,0.453 -0.72,0.44 -1.14,1.203 A 3.35,3.35 0 0 0 1.922,-4.33 q 0,0.938 0.39,1.688 0.388,0.752 1.11,1.187 0.733,0.422 1.672,0.422 1.17,0 2.031,-0.656 z m 7.406,-3.688 q -0.002,-1.183 0.594,-2.203 a 4.5,4.5 0 0 1 1.625,-1.625 4.2,4.2 0 0 1 2.219,-0.61 q 1.183,0 2.203,0.61 a 4.53,4.53 0 0 1 1.625,1.625 q 0.61,1.02 0.61,2.203 0,1.206 -0.61,2.219 a 4.37,4.37 0 0 1 -1.625,1.61 4.3,4.3 0 0 1 -2.203,0.593 4.5,4.5 0 0 1 -2.235,-0.578 4.36,4.36 0 0 1 -1.609,-1.61 4.3,4.3 0 0 1 -0.594,-2.234 m 1.203,0.016 q 0,0.88 0.422,1.64 0.437,0.751 1.188,1.204 0.75,0.438 1.64,0.437 a 3.1,3.1 0 0 0 1.625,-0.437 q 0.75,-0.436 1.172,-1.204 a 3.37,3.37 0 0 0 0.422,-1.656 q -0.002,-0.903 -0.437,-1.672 a 3.1,3.1 0 0 0 -1.172,-1.203 3.05,3.05 0 0 0 -1.625,-0.453 q -0.89,0 -1.64,0.453 -0.74,0.457 -1.173,1.219 a 3.4,3.4 0 0 0 -0.422,1.672 m 23.192,-4.36 V 0.28 h -0.047 l -6.36,-6.47 0.016,6.188 h -1.172 v -8.937 h 0.063 l 6.36,6.531 -0.032,-6.266 z m 12.976,1.547 a 5.6,5.6 0 0 0 -1,-0.406 3.5,3.5 0 0 0 -0.984,-0.156 q -0.72,0 -1.14,0.312 c -0.274,0.211 -0.407,0.5 -0.407,0.875 q -0.001,0.535 0.484,0.875 0.5,0.346 1.391,0.688 0.667,0.234 1.125,0.515 0.468,0.283 0.766,0.782 0.311,0.504 0.312,1.265 -0.002,0.692 -0.344,1.266 -0.345,0.563 -0.984,0.89 -0.643,0.315 -1.516,0.313 a 5,5 0 0 1 -1.546,-0.25 5.5,5.5 0 0 1 -1.297,-0.656 l 0.515,-0.922 q 0.436,0.328 1.063,0.562 0.621,0.235 1.172,0.235 c 0.457,0 0.86,-0.117 1.203,-0.36 0.351,-0.238 0.531,-0.593 0.531,-1.062 Q 51.744,-2.969 51.309,-3.314 50.87,-3.671 50.074,-3.986 a 12,12 0 0 1 -1.219,-0.531 2.5,2.5 0 0 1 -0.828,-0.735 q -0.344,-0.466 -0.343,-1.156 0,-1.014 0.703,-1.64 0.715,-0.639 1.86,-0.672 1.404,0 2.608,0.687 z M 65.97,-8.674 v 1.11 h -2.33 v 7.562 h -1.172 v -7.562 h -2.266 v -1.11 z m 12.64,8.672 -2.046,-3.203 a 2,2 0 0 1 -0.282,0.016 h -1.297 v 3.187 h -1.156 v -8.672 h 2.313 q 0.888,10e-4 1.578,0.313 0.702,0.314 1.094,0.922 0.405,0.598 0.406,1.453 0,0.798 -0.36,1.469 -0.363,0.674 -1.078,1.03 l 2.172,3.485 z m -2.36,-4.312 c 0.625,0 1.07,-0.16 1.344,-0.485 q 0.422,-0.497 0.422,-1.14 -0.001,-0.387 -0.172,-0.75 a 1.5,1.5 0 0 0 -0.563,-0.625 c -0.25,-0.164 -0.57,-0.25 -0.953,-0.25 h -1.344 v 3.25 z m 12.543,1.234 q 0,0.58 0.281,1.047 c 0.188,0.305 0.438,0.547 0.75,0.734 q 0.468,0.268 1.047,0.266 0.609,0.002 1.094,-0.266 0.48,-0.264 0.75,-0.734 0.28,-0.467 0.281,-1.047 v -5.594 h 1.14 v 5.641 q -0.002,0.926 -0.437,1.64 a 2.9,2.9 0 0 1 -1.172,1.094 3.47,3.47 0 0 1 -1.656,0.391 q -0.89,0 -1.64,-0.39 a 2.9,2.9 0 0 1 -1.172,-1.094 q -0.423,-0.716 -0.422,-1.641 v -5.64 h 1.156 z m 20.113,2.438 c -0.281,0.18 -0.636,0.343 -1.062,0.5 -0.43,0.152 -0.899,0.234 -1.406,0.234 q -1.33,0.001 -2.344,-0.578 a 4.06,4.06 0 0 1 -1.563,-1.594 4.45,4.45 0 0 1 -0.547,-2.187 q -0.002,-1.294 0.547,-2.313 a 4.13,4.13 0 0 1 1.532,-1.61 c 0.656,-0.382 1.394,-0.577 2.218,-0.577 q 0.733,0 1.375,0.187 0.638,0.189 1.14,0.5 l -0.468,1.094 c -0.668,-0.445 -1.336,-0.672 -2,-0.672 -0.562,0 -1.086,0.152 -1.562,0.453 q -0.72,0.44 -1.141,1.203 a 3.35,3.35 0 0 0 -0.422,1.672 q 0,0.938 0.39,1.688 0.39,0.752 1.11,1.187 0.733,0.422 1.672,0.422 1.17,0 2.031,-0.656 z m 13.078,-8.032 v 1.11 h -2.328 v 7.562 h -1.172 v -7.562 h -2.265 v -1.11 z m 9.016,0 v 8.672 h -1.156 v -8.672 z m 7.957,4.344 c 0,-0.789 0.195,-1.523 0.594,-2.203 a 4.5,4.5 0 0 1 1.625,-1.625 4.2,4.2 0 0 1 2.219,-0.61 q 1.183,0 2.203,0.61 a 4.53,4.53 0 0 1 1.625,1.625 q 0.609,1.02 0.609,2.203 0,1.206 -0.61,2.219 a 4.37,4.37 0 0 1 -1.624,1.61 4.3,4.3 0 0 1 -2.203,0.593 4.5,4.5 0 0 1 -2.235,-0.578 4.36,4.36 0 0 1 -1.61,-1.61 4.3,4.3 0 0 1 -0.593,-2.234 m 1.203,0.016 q 0,0.88 0.422,1.64 0.436,0.751 1.188,1.204 0.75,0.438 1.64,0.437 a 3.1,3.1 0 0 0 1.625,-0.437 q 0.75,-0.436 1.172,-1.204 a 3.37,3.37 0 0 0 0.422,-1.656 c 0,-0.601 -0.149,-1.16 -0.438,-1.672 a 3.1,3.1 0 0 0 -1.171,-1.203 3.05,3.05 0 0 0 -1.625,-0.453 q -0.891,0 -1.641,0.453 -0.738,0.457 -1.172,1.219 a 3.4,3.4 0 0 0 -0.422,1.672 m 23.188,-4.36 V 0.28 h -0.047 l -6.36,-6.47 0.016,6.188 h -1.172 v -8.937 h 0.063 l 6.359,6.531 -0.031,-6.266 z m 0,0"
         aria-label="CONSTRUCTION"
         style="fill:#103260;fill-opacity:1;fill-rule:nonzero;stroke:none"
         transform="matrix(0.26458,0,0,0.26458,23.946,57.225)"
         id="path9" /></g></g></svg>
